<svg width="16" height="20" viewBox="0 0 16 20" fill="none" xmlns="http://www.w3.org/2000/svg">
<path d="M7.99935 8.33335C9.8403 8.33335 11.3327 6.84097 11.3327 5.00002C11.3327 3.15907 9.8403 1.66669 7.99935 1.66669C6.1584 1.66669 4.66602 3.15907 4.66602 5.00002C4.66602 6.84097 6.1584 8.33335 7.99935 8.33335Z" stroke="white" stroke-width="1.5"/>
<path d="M14.6647 15C14.6663 14.8634 14.6663 14.7242 14.6663 14.5834C14.6663 12.5125 11.6813 10.8334 7.99967 10.8334C4.31801 10.8334 1.33301 12.5125 1.33301 14.5834C1.33301 16.6542 1.33301 18.3334 7.99967 18.3334C9.85884 18.3334 11.1997 18.2025 12.1663 17.9692" stroke="white" stroke-width="1.5" stroke-linecap="round"/>
</svg>
