<svg width="20" height="16" viewBox="0 0 20 16" fill="none" xmlns="http://www.w3.org/2000/svg">
<path d="M18.3337 7.99998C18.3337 7.99998 17.5062 8.74165 15.8512 9.40415L13.5112 10.3408C11.8562 11.0025 11.0278 11.3333 10.0003 11.3333C8.97199 11.3333 8.14449 11.0025 6.48949 10.3408L4.15033 9.40415C2.49449 8.74248 1.66699 7.99998 1.66699 7.99998M1.66699 11.3333C1.66699 11.3333 2.49449 12.075 4.14949 12.7375L6.48949 13.6741C8.14449 14.3358 8.97283 14.6666 10.0003 14.6666C10.7953 14.6666 11.4703 14.4691 12.5003 14.0733M15.8512 12.7375C17.5062 12.0758 18.3337 11.3333 18.3337 11.3333M4.14949 3.26248C2.49449 3.92415 1.66699 4.25498 1.66699 4.66665C1.66699 5.07831 2.49449 5.40831 4.14949 6.07081L6.48949 7.00748C8.14449 7.66915 8.97283 7.99998 10.0003 7.99998C11.0287 7.99998 11.8562 7.66915 13.5112 7.00748L15.8512 6.07081C17.5062 5.40915 18.3337 5.07831 18.3337 4.66665C18.3337 4.25498 17.5062 3.92498 15.8512 3.26248L13.5112 2.32665C11.8562 1.66415 11.0278 1.33331 10.0003 1.33331C9.20533 1.33331 8.53033 1.53081 7.50033 1.92665" stroke="white" stroke-width="1.5" stroke-linecap="round"/>
</svg>
