<svg width="18" height="20" viewBox="0 0 18 20" fill="none" xmlns="http://www.w3.org/2000/svg">
<path d="M5.66699 2.91663C5.66699 2.58511 5.79869 2.26716 6.03311 2.03274C6.26753 1.79832 6.58547 1.66663 6.91699 1.66663H11.0837C11.4152 1.66663 11.7331 1.79832 11.9675 2.03274C12.202 2.26716 12.3337 2.58511 12.3337 2.91663V3.74996C12.3337 4.08148 12.202 4.39942 11.9675 4.63384C11.7331 4.86826 11.4152 4.99996 11.0837 4.99996H6.91699C6.58547 4.99996 6.26753 4.86826 6.03311 4.63384C5.79869 4.39942 5.66699 4.08148 5.66699 3.74996V2.91663Z" stroke="white" stroke-width="1.5"/>
<path d="M11.5 10.8333H9M9 10.8333H6.5M9 10.8333V8.33329M9 10.8333V13.3333M16.5 13.3333C16.5 15.6908 16.5 16.8691 15.7675 17.6016C15.0358 18.3333 13.8567 18.3333 11.5 18.3333H6.5C4.14333 18.3333 2.96417 18.3333 2.2325 17.6016C1.5 16.8683 1.5 15.6908 1.5 13.3333V10.8333M12.3333 3.33496C14.1458 3.34496 15.1275 3.42579 15.7675 4.06579C16.5 4.79829 16.5 5.97663 16.5 8.33329V9.99996M5.66667 3.33496C3.85417 3.34496 2.8725 3.42579 2.2325 4.06579C1.59167 4.70579 1.51167 5.68746 1.50167 7.49996" stroke="white" stroke-width="1.5" stroke-linecap="round"/>
</svg>
