<svg width="20" height="19" viewBox="0 0 20 19" fill="none" xmlns="http://www.w3.org/2000/svg">
<path d="M11.667 17.3334H8.33366C5.19116 17.3334 3.61949 17.3334 2.64366 16.3567C1.66699 15.3809 1.66699 13.8092 1.66699 10.6667V9.00004C1.66699 5.85754 1.66699 4.28587 2.64366 3.31004C3.61949 2.33337 5.19116 2.33337 8.33366 2.33337H11.667C14.8095 2.33337 16.3812 2.33337 17.357 3.31004C18.3337 4.28587 18.3337 5.85754 18.3337 9.00004V10.6667C18.3337 13.8092 18.3337 15.3809 17.357 16.3567C16.8128 16.9017 16.0837 17.1425 15.0003 17.2484M5.83366 2.33337V1.08337M14.167 2.33337V1.08337M17.917 6.50004H8.95866M1.66699 6.50004H4.89616" stroke="white" stroke-width="1.5" stroke-linecap="round"/>
<path d="M15 13.1667C15 13.3877 14.9122 13.5996 14.7559 13.7559C14.5996 13.9122 14.3877 14 14.1667 14C13.9457 14 13.7337 13.9122 13.5774 13.7559C13.4211 13.5996 13.3333 13.3877 13.3333 13.1667C13.3333 12.9457 13.4211 12.7337 13.5774 12.5774C13.7337 12.4211 13.9457 12.3333 14.1667 12.3333C14.3877 12.3333 14.5996 12.4211 14.7559 12.5774C14.9122 12.7337 15 12.9457 15 13.1667ZM15 9.83333C15 10.0543 14.9122 10.2663 14.7559 10.4226C14.5996 10.5789 14.3877 10.6667 14.1667 10.6667C13.9457 10.6667 13.7337 10.5789 13.5774 10.4226C13.4211 10.2663 13.3333 10.0543 13.3333 9.83333C13.3333 9.61232 13.4211 9.40036 13.5774 9.24408C13.7337 9.0878 13.9457 9 14.1667 9C14.3877 9 14.5996 9.0878 14.7559 9.24408C14.9122 9.40036 15 9.61232 15 9.83333ZM10.8333 13.1667C10.8333 13.3877 10.7455 13.5996 10.5893 13.7559C10.433 13.9122 10.221 14 10 14C9.77899 14 9.56702 13.9122 9.41074 13.7559C9.25446 13.5996 9.16667 13.3877 9.16667 13.1667C9.16667 12.9457 9.25446 12.7337 9.41074 12.5774C9.56702 12.4211 9.77899 12.3333 10 12.3333C10.221 12.3333 10.433 12.4211 10.5893 12.5774C10.7455 12.7337 10.8333 12.9457 10.8333 13.1667ZM10.8333 9.83333C10.8333 10.0543 10.7455 10.2663 10.5893 10.4226C10.433 10.5789 10.221 10.6667 10 10.6667C9.77899 10.6667 9.56702 10.5789 9.41074 10.4226C9.25446 10.2663 9.16667 10.0543 9.16667 9.83333C9.16667 9.61232 9.25446 9.40036 9.41074 9.24408C9.56702 9.0878 9.77899 9 10 9C10.221 9 10.433 9.0878 10.5893 9.24408C10.7455 9.40036 10.8333 9.61232 10.8333 9.83333ZM6.66667 13.1667C6.66667 13.3877 6.57887 13.5996 6.42259 13.7559C6.26631 13.9122 6.05435 14 5.83333 14C5.61232 14 5.40036 13.9122 5.24408 13.7559C5.0878 13.5996 5 13.3877 5 13.1667C5 12.9457 5.0878 12.7337 5.24408 12.5774C5.40036 12.4211 5.61232 12.3333 5.83333 12.3333C6.05435 12.3333 6.26631 12.4211 6.42259 12.5774C6.57887 12.7337 6.66667 12.9457 6.66667 13.1667ZM6.66667 9.83333C6.66667 10.0543 6.57887 10.2663 6.42259 10.4226C6.26631 10.5789 6.05435 10.6667 5.83333 10.6667C5.61232 10.6667 5.40036 10.5789 5.24408 10.4226C5.0878 10.2663 5 10.0543 5 9.83333C5 9.61232 5.0878 9.40036 5.24408 9.24408C5.40036 9.0878 5.61232 9 5.83333 9C6.05435 9 6.26631 9.0878 6.42259 9.24408C6.57887 9.40036 6.66667 9.61232 6.66667 9.83333Z" fill="white"/>
</svg>
