<svg width="18" height="18" viewBox="0 0 18 18" fill="none" xmlns="http://www.w3.org/2000/svg">
<path d="M5.66699 6.5H12.3337M5.66699 9.41667H10.2503" stroke="white" stroke-width="1.5" stroke-linecap="round"/>
<path d="M0.0419922 7.74996C0.0419922 7.91572 0.10784 8.07469 0.22505 8.1919C0.342261 8.30911 0.501232 8.37496 0.666992 8.37496C0.832752 8.37496 0.991724 8.30911 1.10893 8.1919C1.22614 8.07469 1.29199 7.91572 1.29199 7.74996H0.0419922ZM1.56199 12.0216C1.49856 11.8685 1.37688 11.7468 1.22373 11.6833C1.07058 11.6199 0.898488 11.6199 0.745326 11.6833C0.592163 11.7467 0.470471 11.8684 0.407022 12.0216C0.343572 12.1747 0.343561 12.3468 0.406992 12.5L1.56199 12.0216ZM10.4437 17.1416L10.8953 16.3783L9.82033 15.7416L9.36783 16.505L10.4437 17.1416ZM7.10533 16.3783L7.55699 17.1416L8.63199 16.505L8.18116 15.7416L7.10533 16.3783ZM9.36783 16.505C9.32888 16.5673 9.27471 16.6187 9.21042 16.6543C9.14613 16.69 9.07383 16.7087 9.00033 16.7087C8.92682 16.7087 8.85452 16.69 8.79023 16.6543C8.72594 16.6187 8.67177 16.5673 8.63282 16.505L7.55699 17.1416C8.20116 18.2308 9.79866 18.2308 10.4437 17.1416L9.36783 16.505ZM7.75033 1.29163H10.2503V0.0416263H7.75033V1.29163ZM16.7087 7.74996V8.58329H17.9587V7.74996H16.7087ZM5.50283 14.2016C4.45616 14.1833 3.90783 14.1166 3.47783 13.9383L3.00033 15.0933C3.67116 15.3716 4.43449 15.4341 5.48116 15.4525L5.50283 14.2016ZM0.406992 12.5C0.647797 13.0813 1.00076 13.6096 1.44572 14.0546C1.89069 14.4995 2.41895 14.8525 3.00033 15.0933L3.47783 13.9383C2.61006 13.5788 1.92145 12.8894 1.56199 12.0216L0.406992 12.5ZM16.7087 8.58329C16.7087 9.56246 16.7087 10.2658 16.6703 10.8208C16.6328 11.37 16.5612 11.7283 16.4395 12.0216L17.5937 12.5C17.7895 12.0283 17.8753 11.5183 17.9178 10.9058C17.9595 10.2983 17.9587 9.54579 17.9587 8.58329H16.7087ZM12.5195 15.4508C13.5662 15.4333 14.3295 15.3716 15.0003 15.0933L14.522 13.9383C14.0928 14.1166 13.5445 14.1833 12.4987 14.2016L12.5195 15.4508ZM16.4395 12.0216C16.08 12.8894 15.3906 13.5788 14.5228 13.9383L15.0003 15.0933C15.5817 14.8525 16.11 14.4995 16.5549 14.0546C16.9999 13.6096 17.3529 13.0813 17.5937 12.5L16.4395 12.0216ZM10.2503 1.29163C11.6262 1.29163 12.6145 1.29163 13.3853 1.36579C14.147 1.43829 14.6312 1.57663 15.0178 1.81329L15.6703 0.74746C15.0545 0.370793 14.3562 0.20246 13.5037 0.120793C12.6603 0.040793 11.602 0.0416263 10.2503 0.0416263V1.29163ZM17.9587 7.74996C17.9587 6.39829 17.9587 5.34079 17.8787 4.49663C17.7978 3.64413 17.6295 2.94496 17.2528 2.32996L16.1862 2.98246C16.4237 3.36913 16.562 3.85329 16.6345 4.61579C16.7078 5.38579 16.7087 6.37413 16.7087 7.74996H17.9587ZM15.017 1.81329C15.4938 2.10521 15.8947 2.50585 16.187 2.98246L17.2528 2.32996C16.8576 1.68494 16.3153 1.14265 15.6703 0.74746L15.017 1.81329ZM7.75033 0.0416263C6.39866 0.0416263 5.34116 0.0416263 4.49699 0.120793C3.64449 0.20246 2.94533 0.370793 2.33033 0.74746L2.98283 1.81413C3.36949 1.57663 3.85366 1.43829 4.61616 1.36579C5.38616 1.29246 6.37449 1.29163 7.75033 1.29163V0.0416263ZM1.29199 7.74996C1.29199 6.37413 1.29199 5.38579 1.36616 4.61496C1.43866 3.85329 1.57699 3.36913 1.81366 2.98246L0.747825 2.33079C0.371159 2.94579 0.202826 3.64413 0.121159 4.49663C0.0419922 5.34163 0.0419922 6.39829 0.0419922 7.74996H1.29199ZM2.33033 0.74746C1.68531 1.14265 1.14302 1.68577 0.747825 2.33079L1.81449 2.98246C2.10627 2.50604 2.50662 2.10541 2.98283 1.81329L2.33033 0.74746ZM8.18033 15.7416C8.01199 15.4558 7.86366 15.2033 7.71866 15.005C7.56952 14.7875 7.37578 14.6043 7.15033 14.4675L6.52199 15.5483C6.56116 15.5716 6.61533 15.6133 6.70866 15.7416C6.80949 15.88 6.92366 16.0716 7.10533 16.3783L8.18033 15.7416ZM5.48116 15.4508C5.84783 15.4575 6.07866 15.4625 6.25533 15.4816C6.42033 15.5 6.48449 15.5266 6.52199 15.5483L7.15033 14.4675C6.917 14.3382 6.65872 14.2603 6.39283 14.2391C6.14449 14.2116 5.84616 14.2075 5.50283 14.2016L5.48116 15.4508ZM10.8953 16.3783C11.077 16.0725 11.1912 15.88 11.292 15.7416C11.3853 15.6133 11.4395 15.5716 11.4787 15.5483L10.8503 14.4675C10.6087 14.6091 10.4337 14.7966 10.282 15.005C10.1378 15.2033 9.98866 15.455 9.81949 15.7416L10.8953 16.3783ZM12.4987 14.2016C12.1553 14.2075 11.8562 14.2116 11.6078 14.2391C11.3487 14.2683 11.0945 14.3258 10.8503 14.4675L11.4787 15.5483C11.5162 15.5266 11.5803 15.5 11.7453 15.4816C11.922 15.4625 12.1537 15.4566 12.5203 15.4508L12.4987 14.2016Z" fill="white"/>
</svg>
