<svg width="18" height="18" viewBox="0 0 18 18" fill="none" xmlns="http://www.w3.org/2000/svg">
<path fill-rule="evenodd" clip-rule="evenodd" d="M1.10033 5.51913C0.666992 6.30829 0.666992 7.26246 0.666992 9.16913V10.4375C0.666992 13.6875 0.666992 15.3133 1.64366 16.3233C2.61949 17.3333 4.19116 17.3333 7.33366 17.3333H10.667C13.8095 17.3333 15.3812 17.3333 16.357 16.3233C17.3337 15.3133 17.3337 13.6883 17.3337 10.4375V9.16996C17.3337 7.26246 17.3337 6.30913 16.9003 5.51913C16.4687 4.72829 15.6778 4.23829 14.097 3.25663L12.4303 2.22246C10.7595 1.18496 9.92366 0.666626 9.00033 0.666626C8.07699 0.666626 7.24199 1.18496 5.57033 2.22246L3.90366 3.25663C2.32283 4.23829 1.53283 4.72829 1.10033 5.51913ZM8.37533 14C8.37533 14.1657 8.44117 14.3247 8.55838 14.4419C8.67559 14.5591 8.83457 14.625 9.00033 14.625C9.16609 14.625 9.32506 14.5591 9.44227 14.4419C9.55948 14.3247 9.62533 14.1657 9.62533 14V11.5C9.62533 11.3342 9.55948 11.1752 9.44227 11.058C9.32506 10.9408 9.16609 10.875 9.00033 10.875C8.83457 10.875 8.67559 10.9408 8.55838 11.058C8.44117 11.1752 8.37533 11.3342 8.37533 11.5V14Z" fill="white"/>
</svg>
