<svg width="24" height="24" viewBox="0 0 24 24" fill="none" xmlns="http://www.w3.org/2000/svg">
<path d="M18.7501 9.71V9.005C18.7501 5.136 15.7261 2 12.0001 2C8.27406 2 5.25006 5.136 5.25006 9.005V9.71C5.25127 10.5516 5.01111 11.3758 4.55806 12.085L3.45006 13.81C2.43906 15.385 3.21106 17.526 4.97006 18.024C9.56617 19.327 14.434 19.327 19.0301 18.024C20.7891 17.526 21.5611 15.385 20.5501 13.811L19.4421 12.086C18.9887 11.3769 18.7482 10.5527 18.7491 9.711L18.7501 9.71Z" stroke="white" stroke-width="1.5"/>
<circle cx="17.5" cy="3.5" r="3.5" fill="#F42222"/>
<path d="M7.5 19C8.155 20.748 9.922 22 12 22C14.078 22 15.845 20.748 16.5 19" stroke="white" stroke-width="1.5" stroke-linecap="round"/>
</svg>
