<svg width="42" height="42" viewBox="0 0 42 42" fill="none" xmlns="http://www.w3.org/2000/svg">
<circle cx="21" cy="21" r="21" fill="#7FAF45"/>
<path fill-rule="evenodd" clip-rule="evenodd" d="M9.30176 15.2916C9.30176 15.0844 9.38407 14.8857 9.53058 14.7392C9.67709 14.5927 9.87581 14.5104 10.083 14.5104H18.4163C18.6235 14.5104 18.8223 14.5927 18.9688 14.7392C19.1153 14.8857 19.1976 15.0844 19.1976 15.2916C19.1976 15.4988 19.1153 15.6975 18.9688 15.8441C18.8223 15.9906 18.6235 16.0729 18.4163 16.0729H10.083C9.87581 16.0729 9.67709 15.9906 9.53058 15.8441C9.38407 15.6975 9.30176 15.4988 9.30176 15.2916ZM25.708 16.0729C25.1266 16.0729 24.551 16.1874 24.0138 16.4099C23.4767 16.6323 22.9887 16.9584 22.5776 17.3695C22.1665 17.7806 21.8404 18.2687 21.6179 18.8058C21.3954 19.3429 21.2809 19.9186 21.2809 20.5C21.2809 21.0813 21.3954 21.657 21.6179 22.1941C21.8404 22.7312 22.1665 23.2193 22.5776 23.6304C22.9887 24.0415 23.4767 24.3676 24.0138 24.5901C24.551 24.8125 25.1266 24.927 25.708 24.927C26.8821 24.927 28.0082 24.4606 28.8384 23.6304C29.6687 22.8001 30.1351 21.6741 30.1351 20.5C30.1351 19.3258 29.6687 18.1998 28.8384 17.3695C28.0082 16.5393 26.8821 16.0729 25.708 16.0729ZM19.7184 20.5C19.7184 19.7134 19.8734 18.9345 20.1744 18.2078C20.4754 17.4812 20.9165 16.8209 21.4727 16.2647C22.0289 15.7085 22.6892 15.2673 23.4159 14.9663C24.1426 14.6653 24.9214 14.5104 25.708 14.5104C26.4946 14.5104 27.2734 14.6653 28.0001 14.9663C28.7268 15.2673 29.3871 15.7085 29.9433 16.2647C30.4995 16.8209 30.9407 17.4812 31.2417 18.2078C31.5427 18.9345 31.6976 19.7134 31.6976 20.5C31.6976 22.0885 31.0665 23.612 29.9433 24.7352C28.82 25.8585 27.2965 26.4895 25.708 26.4895C24.1195 26.4895 22.596 25.8585 21.4727 24.7352C20.3495 23.612 19.7184 22.0885 19.7184 20.5ZM25.708 17.6354C25.9152 17.6354 26.1139 17.7177 26.2604 17.8642C26.4069 18.0107 26.4893 18.2094 26.4893 18.4166V20.0479L27.3403 21.0302C27.4075 21.1077 27.4587 21.1978 27.4911 21.2951C27.5234 21.3925 27.5363 21.4953 27.529 21.5976C27.5216 21.6999 27.4942 21.7998 27.4482 21.8916C27.4023 21.9833 27.3387 22.0651 27.2611 22.1323C27.1836 22.1994 27.0935 22.2506 26.9962 22.283C26.8988 22.3154 26.796 22.3283 26.6937 22.3209C26.5914 22.3136 26.4915 22.2861 26.3997 22.2402C26.308 22.1942 26.2262 22.1306 26.1591 22.0531L25.1174 20.851C24.9947 20.7093 24.927 20.5281 24.9268 20.3406V18.4166C24.9268 18.2094 25.0091 18.0107 25.1556 17.8642C25.3021 17.7177 25.5008 17.6354 25.708 17.6354ZM9.30176 20.5C9.30176 20.2928 9.38407 20.094 9.53058 19.9475C9.67709 19.801 9.87581 19.7187 10.083 19.7187H16.333C16.5402 19.7187 16.7389 19.801 16.8854 19.9475C17.0319 20.094 17.1143 20.2928 17.1143 20.5C17.1143 20.7072 17.0319 20.9059 16.8854 21.0524C16.7389 21.1989 16.5402 21.2812 16.333 21.2812H10.083C9.87581 21.2812 9.67709 21.1989 9.53058 21.0524C9.38407 20.9059 9.30176 20.7072 9.30176 20.5ZM9.30176 25.7083C9.30176 25.5011 9.38407 25.3024 9.53058 25.1559C9.67709 25.0094 9.87581 24.927 10.083 24.927H18.4163C18.6235 24.927 18.8223 25.0094 18.9688 25.1559C19.1153 25.3024 19.1976 25.5011 19.1976 25.7083C19.1976 25.9155 19.1153 26.1142 18.9688 26.2607C18.8223 26.4072 18.6235 26.4895 18.4163 26.4895H10.083C9.87581 26.4895 9.67709 26.4072 9.53058 26.2607C9.38407 26.1142 9.30176 25.9155 9.30176 25.7083Z" fill="white"/>
</svg>
