<svg width="17" height="16" viewBox="0 0 17 16" fill="none" xmlns="http://www.w3.org/2000/svg">
<path d="M3.49967 14.6667V11.3334M3.49967 4.66671V1.33337M1.83301 3.00004H5.16634M1.83301 13H5.16634M9.16634 2.00004L8.01022 5.00595C7.82221 5.49477 7.72821 5.73918 7.58203 5.94476C7.45247 6.12697 7.29327 6.28617 7.11106 6.41573C6.90548 6.56191 6.66107 6.65591 6.17225 6.84392L3.16634 8.00004L6.17225 9.15616C6.66107 9.34417 6.90548 9.43817 7.11107 9.58435C7.29327 9.71391 7.45247 9.87311 7.58203 10.0553C7.72821 10.2609 7.82221 10.5053 8.01022 10.9941L9.16634 14L10.3225 10.9941C10.5105 10.5053 10.6045 10.2609 10.7507 10.0553C10.8802 9.87311 11.0394 9.71391 11.2216 9.58435C11.4272 9.43817 11.6716 9.34417 12.1604 9.15616L15.1663 8.00004L12.1604 6.84392C11.6716 6.65591 11.4272 6.56191 11.2216 6.41573C11.0394 6.28617 10.8802 6.12697 10.7507 5.94476C10.6045 5.73918 10.5105 5.49477 10.3225 5.00595L9.16634 2.00004Z" stroke="white" stroke-width="1.5" stroke-linecap="round" stroke-linejoin="round"/>
</svg>
