<svg width="25" height="25" viewBox="0 0 25 25" fill="none" xmlns="http://www.w3.org/2000/svg">
<rect y="0.232178" width="24.5357" height="24.5357" rx="7.37141" fill="#262626"/>
<path d="M12.8827 20.1785C11.8205 20.1785 10.8222 19.9768 9.88802 19.5734C8.9538 19.1701 8.14115 18.6231 7.45008 17.9325C6.75901 17.2415 6.21204 16.4288 5.80917 15.4946C5.4063 14.5604 5.20461 13.5622 5.2041 12.5C5.2041 11.4378 5.40579 10.4396 5.80917 9.50533C6.21255 8.5711 6.75952 7.75846 7.45008 7.06739C8.14115 6.37632 8.9538 5.82935 9.88802 5.42648C10.8222 5.02361 11.8205 4.82192 12.8827 4.82141C13.4969 4.82141 14.0954 4.8918 14.6779 5.03257C15.2604 5.17334 15.8202 5.37811 16.3572 5.64686C16.5492 5.74924 16.6741 5.90281 16.7319 6.10757C16.7898 6.31233 16.7544 6.50429 16.6259 6.68346C16.498 6.86263 16.3283 6.9778 16.1169 7.029C15.9054 7.08019 15.6976 7.05459 15.4934 6.95221C15.0838 6.76025 14.6582 6.61307 14.2164 6.51069C13.7746 6.40831 13.3301 6.35712 12.8827 6.35712C11.1806 6.35712 9.73112 6.95554 8.53429 8.15237C7.33746 9.3492 6.7393 10.7984 6.73981 12.5C6.73981 14.202 7.33823 15.6515 8.53506 16.8483C9.73189 18.0452 11.1811 18.6433 12.8827 18.6428C14.5847 18.6428 16.0342 18.0446 17.231 16.8483C18.4279 15.652 19.026 14.2026 19.0255 12.5C19.0255 12.3976 19.0224 12.2985 19.0163 12.2028C19.0101 12.1071 19.0004 12.0078 18.9871 11.9049C18.9615 11.6873 19.0032 11.4795 19.1123 11.2814C19.2213 11.0833 19.3843 10.952 19.6014 10.8875C19.8062 10.8235 19.9981 10.8427 20.1773 10.9451C20.3564 11.0474 20.4588 11.201 20.4844 11.4058C20.51 11.5849 20.5292 11.7641 20.542 11.9433C20.5548 12.1224 20.5612 12.308 20.5612 12.5C20.5612 13.5622 20.3595 14.5604 19.9561 15.4946C19.5528 16.4288 19.0058 17.2415 18.3152 17.9325C17.6242 18.6236 16.8115 19.1708 15.8773 19.5742C14.9431 19.9776 13.9449 20.179 12.8827 20.1785Z" fill="white"/>
<path d="M18.9482 6.72192L11.8072 13.8822L10.1563 12.2313C10.0155 12.0905 9.83634 12.0201 9.61878 12.0201C9.40122 12.0201 9.22205 12.0905 9.08128 12.2313C8.9405 12.3721 8.87012 12.5512 8.87012 12.7688C8.87012 12.9863 8.9405 13.1655 9.08128 13.3063L11.2697 15.4947C11.4232 15.6482 11.6024 15.725 11.8072 15.725C12.0119 15.725 12.1911 15.6482 12.3447 15.4947L20.0232 7.79692C20.164 7.65615 20.2344 7.47698 20.2344 7.25942C20.2344 7.04186 20.164 6.8627 20.0232 6.72192C19.8702 6.56784 19.6879 6.49412 19.4765 6.50078C19.2651 6.50743 19.089 6.58115 18.9482 6.72192Z" fill="#FFCB12"/>
</svg>
