<svg width="42" height="42" viewBox="0 0 42 42" fill="none" xmlns="http://www.w3.org/2000/svg">
<circle cx="21" cy="21" r="21" fill="#D2D2D2"/>
<path d="M10 20C10 15.286 10 12.93 11.464 11.465C12.705 10.224 14.587 10.035 18 10.005M30 20C30 15.286 30 12.93 28.535 11.465C27.295 10.224 25.413 10.035 22 10.005" stroke="white" stroke-width="1.5" stroke-linecap="round"/>
<path d="M18 30C15.2 30 13.8 30 12.73 29.455C11.7892 28.9756 11.0244 28.2108 10.545 27.27C10 26.2 10 24.8 10 22C10 19.2 10 17.8 10.545 16.73C11.0244 15.7892 11.7892 15.0244 12.73 14.545C13.8 14 15.2 14 18 14H22C24.8 14 26.2 14 27.27 14.545C28.2108 15.0244 28.9756 15.7892 29.455 16.73C30 17.8 30 19.2 30 22C30 24.8 30 26.2 29.455 27.27C28.9756 28.2108 28.2108 28.9756 27.27 29.455C26.2 30 24.8 30 22 30" stroke="white" stroke-width="1.5" stroke-linecap="round"/>
<path d="M20 19V25M20 25L22.5 22.5M20 25L17.5 22.5" stroke="white" stroke-width="1.5" stroke-linecap="round" stroke-linejoin="round"/>
</svg>
